Coordinates
version=1
nRows=10
nColumns=40
inDegrees=yes

Units are S.I. units (second, meters, Newtons, ...)
Angles are in degrees.

endheader
time	pelvis_tilt	pelvis_list	pelvis_rotation	pelvis_tx	pelvis_ty	pelvis_tz	hip_flexion_r	hip_adduction_r	hip_rotation_r	knee_angle_r	knee_angle_r_beta	ankle_angle_r	subtalar_angle_r	mtp_angle_r	hip_flexion_l	hip_adduction_l	hip_rotation_l	knee_angle_l	knee_angle_l_beta	ankle_angle_l	subtalar_angle_l	mtp_angle_l	lumbar_extension	lumbar_bending	lumbar_rotation	arm_flex_r	arm_add_r	arm_rot_r	elbow_flex_r	pro_sup_r	wrist_flex_r	wrist_dev_r	arm_flex_l	arm_add_l	arm_rot_l	elbow_flex_l	pro_sup_l	wrist_flex_l	wrist_dev_l
     42.24000000	     -5.86314931	     -3.99632401	     -1.46942637	      0.96572592	      0.91562476	      0.44740296	      7.83249541	     -7.64595156	     -9.41760892	     43.62605600	     43.62605600	      6.87269749	     -6.85002148	    -15.52903794	     21.00518859	     -1.87462615	     -2.21930520	     32.35982264	     32.35982264	     19.96628424	    -17.96717144	     11.45197005	     -9.77540731	      7.21685518	      4.17710125	     28.27466236	    -17.20830413	    -26.30490540	     24.01829317	     46.53660123	      0.00000000	      0.00000000	     10.04218891	    -17.26862374	     11.23380914	     42.14863471	     45.61240211	      0.00000000	      0.00000000
     42.25814286	     -5.83280042	     -4.08815548	     -1.92996369	      0.96466816	      0.91489722	      0.44604241	     10.16859693	     -7.61705289	     -8.22978809	     47.46600026	     47.46600026	      5.50153775	     -9.38516354	    -14.81042784	     20.67530944	     -1.96676760	     -2.50202648	     32.56310527	     32.56310527	     20.47604640	    -17.99572068	     11.25502842	    -10.00931287	      7.47061297	      3.75725260	     24.99150064	    -16.44079874	    -26.57799114	     22.86680491	     46.59465219	      0.00000000	      0.00000000	     11.21082754	    -17.72594040	     10.64553293	     43.66079529	     45.70878909	      0.00000000	      0.00000000
     42.27628571	     -5.78866492	     -4.08854562	     -2.43097445	      0.96356250	      0.91424628	      0.44476927	     12.44796190	     -7.64368182	     -7.19676169	     51.07655172	     51.07655172	      4.45049326	    -11.36165636	    -13.46628229	     20.27510618	     -1.98395095	     -2.93408625	     32.66956724	     32.66956724	     20.91123873	    -18.03413303	     11.10093574	    -10.29508092	      7.66545289	      3.35240089	     21.67082513	    -15.71106118	    -26.79520531	     21.77425802	     46.64245073	      0.00000000	      0.00000000	     12.54697842	    -18.19825651	     10.02806054	     44.92576217	     45.80502457	      0.00000000	      0.00000000
     42.29442857	     -5.68246249	     -4.18206702	     -2.92699198	      0.96244472	      0.91386526	      0.44378766	     14.69334278	     -7.44710081	     -6.20080924	     54.62149775	     54.62149775	      5.38408271	    -11.68181789	     -6.87721117	     19.78848357	     -2.11709499	     -3.32913177	     32.74817879	     32.74817879	     21.33222116	    -18.00239130	     10.88887182	    -10.72275580	      7.92750941	      3.26160885	     17.76615093	    -14.98756833	    -27.40230168	     21.96686508	     46.71903436	      0.00000000	      0.00000000	     13.90363278	    -18.53071389	      8.66702178	     46.85029210	     46.02059190	      0.00000000	      0.00000000
     42.31257143	     -5.64641964	     -4.14996119	     -3.42492834	      0.96120968	      0.91373576	      0.44297244	     16.73022681	     -7.33345160	     -5.42806333	     57.14207094	     57.14207094	      4.53535464	    -12.94821606	     -6.21557512	     19.26531103	     -2.09452938	     -3.71828071	     32.58093426	     32.58093426	     21.66167638	    -18.01391359	     10.80672006	    -10.99286162	      8.05473895	      2.71253962	     14.80564248	    -14.18344952	    -27.46921267	     20.71185242	     46.75859092	      0.00000000	      0.00000000	     15.37850983	    -19.16194954	      8.19310061	     47.62516927	     46.09184828	      0.00000000	      0.00000000
     42.33071429	     -5.66487520	     -4.32000780	     -4.00421907	      0.95987527	      0.91402189	      0.44270371	     18.86353575	     -6.79098745	     -4.61753684	     59.38301925	     59.38301925	      5.75624018	    -13.04065855	     -0.33916670	     18.71586264	     -2.35221469	     -4.18488952	     32.25975783	     32.25975783	     21.80645588	    -17.99680060	     10.39919706	    -11.33311964	      8.41627705	      3.09491779	     11.04918317	    -13.69847313	    -27.64304072	     20.47968825	     46.83537900	      0.00000000	      0.00000000	     17.16632132	    -19.18897774	      7.04429841	     49.05637833	     46.27369299	      0.00000000	      0.00000000
     42.34885714	     -5.71222252	     -4.40879528	     -4.59635676	      0.95847524	      0.91473959	      0.44275794	     20.75236614	     -6.30209067	     -4.03419555	     60.55626841	     60.55626841	      5.52748609	    -13.75695628	      0.14823845	     18.08370267	     -2.52208135	     -4.65578836	     31.70959411	     31.70959411	     21.94042265	    -17.94531291	     10.37716974	    -11.58595689	      8.66056235	      2.99109585	      8.17073374	    -13.08890113	    -27.64972599	     19.33406534	     46.87925028	      0.00000000	      0.00000000	     18.73502092	    -19.64709687	      6.46405099	     50.25403265	     46.36116252	      0.00000000	      0.00000000
     42.36700000	     -5.79749577	     -4.51407925	     -5.25587342	      0.95702787	      0.91591734	      0.44330271	     22.60285387	     -5.72869249	     -3.57871380	     61.09247359	     61.09247359	      6.02837745	    -13.90679676	      1.67008558	     17.33149248	     -2.75511964	     -5.26806038	     30.84738889	     30.84738889	     21.75019305	    -17.86668368	      9.84324650	    -11.82517256	      8.87835835	      2.82863246	      5.19523051	    -12.40317841	    -27.44034474	     19.28219438	     46.92963041	      0.00000000	      0.00000000	     20.02750868	    -20.09251521	      5.12993835	     51.95634926	     46.53911186	      0.00000000	      0.00000000
     42.38514286	     -5.93287130	     -4.60889498	     -5.96091114	      0.95550330	      0.91749971	      0.44424374	     24.32596273	     -5.10085545	     -3.24087099	     60.74462596	     60.74462596	      6.25492905	    -14.06837546	      1.55792727	     16.52527000	     -2.97498725	     -5.88255336	     29.78706421	     29.78706421	     21.64563307	    -17.74836088	      9.91837925	    -11.99703132	      9.06831749	      2.75789336	      2.70557639	    -11.83483704	    -27.39566979	     18.39186766	     46.96006439	      0.00000000	      0.00000000	     21.53699321	    -20.61796582	      4.45715038	     53.24773259	     46.62932152	      0.00000000	      0.00000000
     42.40328571	     -6.11284195	     -4.71051418	     -6.71810559	      0.95398803	      0.91939040	      0.44559167	     25.91787209	     -4.41590494	     -3.01374264	     59.58734380	     59.58734380	      6.63220604	    -13.95794315	      1.18941284	     15.62296130	     -3.21908517	     -6.58544759	     28.46918566	     28.46918566	     21.42131318	    -17.54975964	      9.93570682	    -12.12534531	      9.24000085	      2.68708579	      0.36801222	    -11.30649574	    -27.37656159	     17.77597287	     46.97999380	      0.00000000	      0.00000000	     22.92512225	    -21.15245660	      3.65147906	     54.69666691	     46.72984437	      0.00000000	      0.00000000
